<svg fill="none" height="19" viewBox="0 0 193 19" width="193" xmlns="http://www.w3.org/2000/svg"><path d="m6.624 15h2.556l-.18-2.7v-3.438c0-2.304-.936-3.636-4.05-3.636-3.15 0-4.05 1.566-4.05 3.222v.162h2.682c0-.63.252-1.224 1.278-1.224.972 0 1.278.468 1.296 1.404l-2.196.342c-1.998.306-3.42.99-3.42 3.06v.18c0 1.53.774 2.862 2.916 2.862 1.332 0 2.322-.504 2.988-1.224zm-2.124-2.07c-.828 0-1.134-.486-1.134-.972v-.108c0-.576.288-.99 1.17-1.134l1.62-.252v1.746c-.306.324-.846.72-1.656.72zm8.7629-2.376v-.648c0-1.404.432-2.232 1.53-2.232.9 0 1.368.522 1.368 1.494h2.682v-.414c0-2.106-1.368-3.528-4.104-3.528-3.006 0-4.32 1.926-4.32 4.68v.648c0 2.754 1.314 4.68 4.32 4.68 2.736 0 4.104-1.404 4.104-3.366v-.396h-2.682c0 .756-.45 1.314-1.368 1.314-1.098 0-1.53-.828-1.53-2.232zm9.4922 0v-.648c0-1.404.432-2.232 1.53-2.232.9 0 1.368.522 1.368 1.494h2.682v-.414c0-2.106-1.368-3.528-4.104-3.528-3.006 0-4.32 1.926-4.32 4.68v.648c0 2.754 1.314 4.68 4.32 4.68 2.736 0 4.104-1.404 4.104-3.366v-.396h-2.682c0 .756-.45 1.314-1.368 1.314-1.098 0-1.53-.828-1.53-2.232zm15.5762.702v-1.278c0-2.754-1.386-4.752-4.41-4.752-3.006 0-4.518 1.998-4.518 4.752v.504c0 2.754 1.458 4.752 4.626 4.752 2.754 0 4.302-1.404 4.302-3.222v-.072h-2.682c0 .576-.612 1.134-1.602 1.134-1.062 0-1.692-.486-1.8-1.818zm-4.464-3.87c1.008 0 1.512.576 1.602 1.818h-3.204c.09-1.242.594-1.818 1.602-1.818zm9.7499 5.688c-.954 0-1.296-.468-1.296-1.098h-2.826v.09c0 1.854 1.332 3.168 4.122 3.168 2.754 0 4.14-1.224 4.14-3.204v-.162c0-2.016-1.584-2.502-3.978-2.7-1.098-.09-1.368-.342-1.368-.918 0-.522.414-.864 1.206-.864.864 0 1.224.45 1.224 1.206h2.79v-.09c0-2.052-1.206-3.276-4.014-3.276-2.268 0-4.014.918-4.014 3.114v.162c0 1.8 1.17 2.466 3.87 2.682 1.116.09 1.422.36 1.422.954 0 .54-.36.936-1.278.936zm9.5098 0c-.954 0-1.296-.468-1.296-1.098h-2.826v.09c0 1.854 1.332 3.168 4.122 3.168 2.754 0 4.14-1.224 4.14-3.204v-.162c0-2.016-1.584-2.502-3.978-2.7-1.098-.09-1.368-.342-1.368-.918 0-.522.414-.864 1.206-.864.864 0 1.224.45 1.224 1.206h2.79v-.09c0-2.052-1.206-3.276-4.014-3.276-2.268 0-4.014.918-4.014 3.114v.162c0 1.8 1.17 2.466 3.87 2.682 1.116.09 1.422.36 1.422.954 0 .54-.36.936-1.278.936zm5.7298 1.926h2.844v-9.54h-2.844zm2.916-13.896h-2.988v3.006h2.988zm4.6912-.504h-2.844v11.7l-.162 2.7h2.538l.198-1.152c.54.81 1.386 1.386 2.718 1.386 2.61 0 3.546-1.926 3.546-4.68v-.648c0-2.754-.936-4.68-3.546-4.68-1.134 0-1.908.414-2.448 1.044zm0 7.974c.234-.342.774-.9 1.62-.9 1.098 0 1.53.828 1.53 2.232v.648c0 1.404-.432 2.232-1.53 2.232-.846 0-1.386-.558-1.62-.9zm7.51 6.426h2.844v-14.4h-2.844zm13.2772-3.744v-1.278c0-2.754-1.386-4.752-4.41-4.752-3.006 0-4.518 1.998-4.518 4.752v.504c0 2.754 1.458 4.752 4.626 4.752 2.754 0 4.302-1.404 4.302-3.222v-.072h-2.682c0 .576-.612 1.134-1.602 1.134-1.062 0-1.692-.486-1.8-1.818zm-4.464-3.87c1.008 0 1.512.576 1.602 1.818h-3.204c.09-1.242.594-1.818 1.602-1.818zm13.3535 5.688c-.954 0-1.296-.468-1.296-1.098h-2.826v.09c0 1.854 1.332 3.168 4.122 3.168 2.754 0 4.1403-1.224 4.1403-3.204v-.162c0-2.016-1.5843-2.502-3.9783-2.7-1.098-.09-1.368-.342-1.368-.918 0-.522.414-.864 1.206-.864.864 0 1.224.45 1.224 1.206h2.7903v-.09c0-2.052-1.2063-3.276-4.0143-3.276-2.268 0-4.014.918-4.014 3.114v.162c0 1.8 1.17 2.466 3.87 2.682 1.116.09 1.422.36 1.422.954 0 .54-.36.936-1.278.936zm9.3393-1.53-1.8-6.084h-3.096l3.348 9.036-1.53 4.104h3.384l1.224-4.104 3.366-9.036h-3.096zm9.276 1.53c-.954 0-1.296-.468-1.296-1.098h-2.826v.09c0 1.854 1.332 3.168 4.122 3.168 2.754 0 4.14-1.224 4.14-3.204v-.162c0-2.016-1.584-2.502-3.978-2.7-1.098-.09-1.368-.342-1.368-.918 0-.522.414-.864 1.206-.864.864 0 1.224.45 1.224 1.206h2.79v-.09c0-2.052-1.206-3.276-4.014-3.276-2.268 0-4.014.918-4.014 3.114v.162c0 1.8 1.17 2.466 3.87 2.682 1.116.09 1.422.36 1.422.954 0 .54-.36.936-1.278.936zm9.191-7.614v-2.7h-2.844v2.7h-1.458v2.484h1.458v3.744c0 2.628 1.44 3.546 3.582 3.546.864 0 1.368-.144 1.53-.234v-2.34c-.108.054-.558.126-.864.126-.864 0-1.404-.234-1.404-1.404v-3.438h2.448v-2.484zm12.576 5.796v-1.278c0-2.754-1.386-4.752-4.41-4.752-3.006 0-4.518 1.998-4.518 4.752v.504c0 2.754 1.458 4.752 4.626 4.752 2.754 0 4.302-1.404 4.302-3.222v-.072h-2.682c0 .576-.612 1.134-1.602 1.134-1.062 0-1.692-.486-1.8-1.818zm-4.464-3.87c1.008 0 1.512.576 1.602 1.818h-3.204c.09-1.242.594-1.818 1.602-1.818zm19.668 7.614v-6.57c0-1.8-.846-3.204-2.826-3.204-1.422 0-2.358.63-2.934 1.476-.414-.9-1.224-1.476-2.502-1.476-1.368 0-2.286.576-2.862 1.386l-.198-1.152h-2.538l.162 2.7v6.84h2.844v-6.498c.216-.342.666-.828 1.458-.828s1.134.45 1.134 1.206v6.12h2.826v-6.498c.234-.342.666-.828 1.476-.828.792 0 1.134.45 1.134 1.206v6.12zm5.621-1.926c-.954 0-1.296-.468-1.296-1.098h-2.826v.09c0 1.854 1.332 3.168 4.122 3.168 2.754 0 4.14-1.224 4.14-3.204v-.162c0-2.016-1.584-2.502-3.978-2.7-1.098-.09-1.368-.342-1.368-.918 0-.522.414-.864 1.206-.864.864 0 1.224.45 1.224 1.206h2.79v-.09c0-2.052-1.206-3.276-4.014-3.276-2.268 0-4.014.918-4.014 3.114v.162c0 1.8 1.17 2.466 3.87 2.682 1.116.09 1.422.36 1.422.954 0 .54-.36.936-1.278.936z" fill="#6e16de"/><path d="m166.915 15h1.8v-9.54h-1.8zm1.926-13.572h-2.052v2.052h2.052zm9.889 13.572v-6.606c0-1.764-.918-3.15-2.916-3.15-1.566 0-2.574.666-3.15 1.53l-.198-1.314h-1.548l.126 2.7v6.84h1.8v-6.894c.324-.522 1.008-1.278 2.304-1.278 1.17 0 1.8.666 1.8 1.854v6.318zm3.58-4.518v-.504c0-1.908.702-3.15 2.322-3.15 1.44 0 2.052.918 2.052 2.196h1.728v-.378c0-1.746-1.152-3.402-3.816-3.402-2.862 0-4.104 2.052-4.104 4.734v.504c0 2.682 1.242 4.734 4.104 4.734 2.664 0 3.816-1.602 3.816-3.276v-.324h-1.728c0 1.08-.576 2.016-2.052 2.016-1.62 0-2.322-1.242-2.322-3.15zm9.98 2.466h-2.052v2.052h2.052z" fill="#323232"/></svg>