<svg fill="none" height="40" viewBox="0 0 40 40" width="40" xmlns="http://www.w3.org/2000/svg"><circle cx="20" cy="20" fill="#162ade" r="20"/><g fill="#fff" fill-rule="evenodd"><path d="m23.44 18a.43.43 0 0 0 -.32.14l-4.51 4.5-1.9-1.91a.47.47 0 0 0 -.33-.14.49.49 0 0 0 -.33.13.47.47 0 0 0 -.14.33.45.45 0 0 0 .14.33l2.24 2.24a.46.46 0 0 0 .32.13.49.49 0 0 0 .33-.13l4.83-4.83a.44.44 0 0 0 .1-.51.43.43 0 0 0 -.43-.28z"/><path d="m26.47 24.74v-8.32a1 1 0 0 0 -.23-.46l-.93-1.16-.92-1.15-1.16-1.39a.58.58 0 0 0 -.46-.23h-8.77a.48.48 0 0 0 -.46.46v15a.48.48 0 0 0 .46.51h12a.48.48 0 0 0 .46-.46v-2.8zm-3.24-11.09 1.85 2.54h-1.85zm-8.78-.65h7.86v3.7a.44.44 0 0 0 .41.46h2.83v9.94h-11.1z"/></g></svg>
