<svg fill="none" height="40" viewBox="0 0 40 40" width="40" xmlns="http://www.w3.org/2000/svg"><circle cx="20" cy="20" fill="#162ade" r="20"/><g fill="#fff"><path d="m28.59 24.15a.28.28 0 0 1 -.28.29h-16.62a.28.28 0 0 1 -.28-.29v-.86h17.18zm-7.2 2.58h-2.78l.21-1.73h2.36zm1.76.86h-.86a.29.29 0 0 0 0 .57h.86v.29h-6.3v-.29h4.3a.29.29 0 0 0 0-.57h-4.3a.29.29 0 0 1 .29-.29h5.72a.29.29 0 0 1 .29.29zm2-7.74h2.29v2.87h-2.28zm-12.6-3.43h2.29v6.3h-2.29zm14.9-.58h-14.9v-1.14h14.9zm-2.29.58h2.29v2.86h-2.29zm-9.74 6.3v-6.3h9.16v6.3zm-3.73-9.17h16.62a.28.28 0 0 1 .28.29v8.88h-.59v-8.31a.3.3 0 0 0 -.08-.2.29.29 0 0 0 -.21-.09h-15.44a.29.29 0 0 0 -.21.09.3.3 0 0 0 -.08.2v8.31h-.57v-8.88a.28.28 0 0 1 .28-.29zm16.62-.55h-16.62a.86.86 0 0 0 -.86.86v10.29a.86.86 0 0 0 .86.86h6.55l-.24 1.72h-.89a.85.85 0 0 0 -.86.86v1.14a.32.32 0 0 0 .08.21.3.3 0 0 0 .2.08h6.88a.3.3 0 0 0 .2-.08.32.32 0 0 0 .08-.21v-1.14a.85.85 0 0 0 -.86-.86h-.83l-.24-1.73h6.55a.86.86 0 0 0 .86-.86v-10.3a.86.86 0 0 0 -.86-.86z"/><path d="m19.71 23.58h.57v.57h-.57z"/><path d="m20.29 21.68v-2.22l1.71-.86v2.22zm-2.29-3.08 1.72.86v2.22l-1.72-.86zm2-1.29 1.65.83-1.65.86-1.65-.82zm2.42.57-2.29-1.15a.3.3 0 0 0 -.26 0l-2.29 1.15a.29.29 0 0 0 -.16.26v2.86a.29.29 0 0 0 .16.26l2.29 1.14a.3.3 0 0 0 .26 0l2.29-1.14a.29.29 0 0 0 .16-.26v-2.86a.29.29 0 0 0 -.16-.26z"/><path d="m12.84 14.98h.57v.57h-.57z"/><path d="m13.98 14.98h.57v.57h-.57z"/><path d="m15.13 14.98h.57v.57h-.57z"/><path d="m25.44 14.98h1.72v.57h-1.72z"/><path d="m13.12 17.56h1.15v.57h-1.15z"/><path d="m13.12 19.28h1.15v.57h-1.15z"/><path d="m13.12 21h1.15v.57h-1.15z"/><path d="m25.73 16.99h1.15v.57h-1.15z"/><path d="m25.73 18.14h1.15v.57h-1.15z"/><path d="m25.73 20.43h1.15v.57h-1.15z"/><path d="m25.73 21.57h1.15v.57h-1.15z"/></g></svg>
