<svg fill="none" height="40" viewBox="0 0 40 40" width="40" xmlns="http://www.w3.org/2000/svg"><circle cx="20" cy="20" fill="#162ade" r="20"/><g fill="#fff"><path d="m28.08 27a1.1 1.1 0 0 1 -1.1 1.1h-13.98a1.1 1.1 0 0 1 -1.1-1.1v-14a1.1 1.1 0 0 1 1.1-1.1h14a1.1 1.1 0 0 1 1.1 1.1zm-1.08-15.81h-14a1.83 1.83 0 0 0 -1.81 1.81v14a1.83 1.83 0 0 0 1.81 1.81h14a1.83 1.83 0 0 0 1.81-1.81v-14a1.83 1.83 0 0 0 -1.81-1.81z"/><path d="m12.66 14.12h14.69v.73h-14.69z"/><path d="m13.02 12.66h.73v.73h-.73z"/><path d="m14.49 12.66h.73v.73h-.73z"/><path d="m26.24 12.66h.73v.73h-.73z"/><path d="m21.47 20.37h-8.08v-3.68h8.08zm.37-4.37h-8.84a.36.36 0 0 0 -.36.37v4.4a.34.34 0 0 0 .1.26.38.38 0 0 0 .26.11h8.82a.36.36 0 0 0 .36-.37v-4.4a.4.4 0 0 0 -.1-.26.38.38 0 0 0 -.26-.11z"/><path d="m22.94 15.96h2.57v.73h-2.57z"/><path d="m25.14 20.37h.73v.73h-.73z"/><path d="m26.61 20.37h.73v.73h-.73z"/><path d="m22.94 17.43h4.41v.73h-4.41z"/><path d="m22.94 18.9h4.41v.73h-4.41z"/><path d="m16.33 24.77h-2.94v-2.2h2.94zm.36-2.93h-3.69a.36.36 0 0 0 -.36.36v2.94a.35.35 0 0 0 .1.26.38.38 0 0 0 .26.11h3.67a.35.35 0 0 0 .33-.11.36.36 0 0 0 .11-.26v-2.94a.38.38 0 0 0 -.11-.26.34.34 0 0 0 -.26-.1z"/><path d="m26.61 24.77h-2.94v-2.2h2.94zm.39-2.93h-3.69a.36.36 0 0 0 -.37.36v2.94a.36.36 0 0 0 .11.26.35.35 0 0 0 .26.11h3.69a.38.38 0 0 0 .26-.11.35.35 0 0 0 .1-.26v-2.94a.34.34 0 0 0 -.36-.36z"/><path d="m21.47 24.77h-2.94v-2.2h2.94zm.37-2.93h-3.68a.36.36 0 0 0 -.36.36v2.94a.4.4 0 0 0 .1.26.38.38 0 0 0 .26.11h3.68a.38.38 0 0 0 .26-.11.4.4 0 0 0 .1-.26v-2.94a.42.42 0 0 0 -.1-.26.37.37 0 0 0 -.26-.1z"/><path d="m12.66 26.24h4.41v.73h-4.41z"/><path d="m17.8 26.24h4.41v.73h-4.41z"/><path d="m22.94 26.24h4.41v.73h-4.41z"/></g></svg>
