<svg height="40" viewBox="0 0 40 40" width="40" xmlns="http://www.w3.org/2000/svg"><circle cx="20" cy="20" fill="#162ade" r="20"/><path d="m11.46 16.6a4.73 4.73 0 0 0 -4.72 4.72c0 1.67 1.85 5.19 3.38 7.87a1.57 1.57 0 0 0 1.34.78 1.51 1.51 0 0 0 1.34-.78c1.53-2.68 3.38-6.2 3.38-7.87a4.72 4.72 0 0 0 -4.72-4.72z" fill="#fff"/><path d="m28.54 21.4a1.51 1.51 0 0 0 1.34-.78c1.53-2.68 3.38-6.2 3.38-7.87a4.72 4.72 0 1 0 -9.43 0c0 1.67 1.84 5.19 3.37 7.87a1.57 1.57 0 0 0 1.34.78z" fill="#fff"/><path d="m27.51 12.75a1 1 0 1 1 1 1 1 1 0 0 1 -1-1zm3.23 0a2.2 2.2 0 1 0 -2.2 2.2 2.21 2.21 0 0 0 2.2-2.2z" fill="#162ade"/><path d="m11.46 22.35a1 1 0 1 1 1-1 1 1 0 0 1 -1 1zm0-3.24a2.21 2.21 0 1 0 2.2 2.21 2.22 2.22 0 0 0 -2.2-2.21z" fill="#162ade"/><path d="m28.46 22.94h-7.12a1.93 1.93 0 1 1 0-3.85h2a.57.57 0 0 0 .58-.58.58.58 0 0 0 -.58-.59h-2a3.13 3.13 0 1 0 0 6.25h7.09a1.93 1.93 0 0 1 0 3.85h-12.7a.58.58 0 0 0 -.59.59.57.57 0 0 0 .59.59h12.73a3.13 3.13 0 0 0 0-6.25z" fill="#fff"/></svg>
