<svg height="40" viewBox="0 0 40 40" width="40" xmlns="http://www.w3.org/2000/svg"><circle cx="20" cy="20" fill="#162ade" r="20"/><path d="m21.88 28.73h-3.76l.29-2.32h3.18zm5.12-9.28h3.1v3.87h-3.1zm-17-4.64h3v8.51h-3.06zm20.06-.81h-20.12v-1.51h20.12zm-3.1.77h3.1v3.87h-3.06zm-13.15 8.55v-8.51h12.38v8.51zm-5-12.38h22.41a.39.39 0 0 1 .38.39v12h-.77v-11.22a.39.39 0 0 0 -.11-.28.43.43 0 0 0 -.28-.11h-20.88a.43.43 0 0 0 -.28.11.39.39 0 0 0 -.11.28v11.21h-.77v-12a.39.39 0 0 1 .38-.39zm22.44-.77h-22.47a1.17 1.17 0 0 0 -1.16 1.16v13.92a1.17 1.17 0 0 0 1.16 1.16h8.85l-.29 2.32h-1.21a1.17 1.17 0 0 0 -1.13 1.16v1.55a.39.39 0 0 0 .12.28.39.39 0 0 0 .27.11h9.28a.39.39 0 0 0 .27-.11.39.39 0 0 0 .12-.28v-1.55a1.17 1.17 0 0 0 -1.16-1.16h-1.24l-.29-2.32h8.85a1.17 1.17 0 0 0 1.16-1.16v-13.92a1.17 1.17 0 0 0 -1.16-1.16z" fill="#fff"/><path d="m19.61 24.48h.77v.77h-.77z" fill="#162ade"/><g fill="#fff"><path d="m20.39 21.92v-3l2.32-1.16v3zm-3.1-4.16 2.32 1.16v3l-2.32-1.16zm2.71-1.76 2.23 1.11-2.23 1.14-2.23-1.12zm3.27.77-3.1-1.55a.4.4 0 0 0 -.34 0l-3.1 1.55a.38.38 0 0 0 -.21.34v3.89a.39.39 0 0 0 .21.35l3.1 1.54a.34.34 0 0 0 .34 0l3.1-1.54a.39.39 0 0 0 .21-.35v-3.87a.38.38 0 0 0 -.21-.34z"/><path d="m10.33 12.88h.77v.77h-.77z"/><path d="m11.88 12.88h.77v.77h-.77z"/><path d="m13.43 12.88h.77v.77h-.77z"/><path d="m27.35 12.88h2.32v.77h-2.32z"/><path d="m10.72 16.36h1.55v.77h-1.55z"/><path d="m10.72 18.68h1.55v.77h-1.55z"/><path d="m10.72 21h1.55v.77h-1.55z"/><path d="m27.74 15.59h1.55v.77h-1.55z"/><path d="m27.74 17.13h1.55v.77h-1.55z"/><path d="m27.74 20.23h1.55v.77h-1.55z"/><path d="m27.74 21.77h1.55v.77h-1.55z"/></g></svg>
